# xmcd
#
# Track frame offsets:
#	150
#	18475
#	37329
#	60674
#	78370
#	94999
#	113082
#	136325
#	150156
#	169672
#	190214
#	207417
#	231221
#
# Disc length: 3368 seconds
#
# Revision: 0
# Processed by: cddbd v1.5.2PL0 Copyright (c) Steve Scherf et al.
# Submitted via: EasyCDDAExtractor 2010.4.0.0
#
DISCID=a90d260d
DTITLE=Leroy Thomas and the Zydeco Road Runners - Monkey and the Baboon
DYEAR=2000
DGENRE=zydeco
TTITLE0=Monkey and the baboon
TTITLE1=Ca fait du mal
TTITLE2=I don't work no more
TTITLE3=Zydeco cha cha
TTITLE4=Honey, it's you
TTITLE5=Man in the barn
TTITLE6=Thomas boyz boogie
TTITLE7=French waltz
TTITLE8=Baby I'm hungry
TTITLE9=Mom m'a dit pas voler
TTITLE10=If you love Leroy
TTITLE11=Don't ya cry no more Beau
TTITLE12=Let me take you home
EXTD=
EXTT0=
EXTT1=
EXTT2=
EXTT3=
EXTT4=
EXTT5=
EXTT6=
EXTT7=
EXTT8=
EXTT9=
EXTT10=
EXTT11=
EXTT12=
PLAYORDER=
